<?xml version="1.0" encoding="utf-8"?>
<!-- Generator: Adobe Illustrator 16.0.0, SVG Export Plug-In . SVG Version: 6.00 Build 0)  -->
<!DOCTYPE svg PUBLIC "-//W3C//DTD SVG 1.1//EN" "http://www.w3.org/Graphics/SVG/1.1/DTD/svg11.dtd">
<svg version="1.1" id="Layer_1" xmlns="http://www.w3.org/2000/svg" xmlns:xlink="http://www.w3.org/1999/xlink" x="0px" y="0px"
	 width="800px" height="218px" viewBox="0 0 800 218" enable-background="new 0 0 800 218" xml:space="preserve">
<g>
	<path fill-rule="evenodd" clip-rule="evenodd" fill="#ED1C24" d="M235.041,167.843c-4.704,3.969-9.642,6.888-15.053,8.986
		c-5.289,1.984-10.933,2.911-16.813,2.911c-11.874,0-20.577-3.617-26.101-10.725c-5.411-7.233-8.113-18.663-8.113-34.177v-53.19
		h40.8v45.138c0,6.88-0.119,27.411,11.521,27.411c12.229,0,10.699-18.776,10.699-25.541V81.648h39.154v96.231h-36.095V167.843
		L235.041,167.843z M39.39,218H800V38.725h-37.273v45.256h19.64v26.709h-21.048v19.129c0,11.201,0.705,17.968,2.235,20.409
		c1.409,2.338,5.992,3.617,10.579,3.617h6.704v31.266c-1.766,0.229-3.646,0.582-5.762,0.813c-2.001,0.352-4.587,0.58-7.524,0.934
		c-2.825,0.353-6.118,0.468-9.643,0.468c-5.763,0-10.936-0.468-15.755-1.165c-4.587-0.82-5.525-1.983-9.17-3.501
		c-5.059-2.337-8.704-5.715-10.821-10.151c-2.114-4.428-3.288-11.66-3.288-21.688V110.69h-19.871V83.981h16.691V38.725H481.246
		v28.108h-37.976V38.725H262.435v26.01h-31.629v-26.01h-19.283v26.01h-31.039v-26.01h-23.753v136.121h-38.8v-52.143H78.66v52.143
		H39.861v-0.936H39.39V218L39.39,218z M283.952,177.296V84.563h36.802l-0.235,11.082c9.642-12.713,23.398-14.114,37.86-11.082
		l0.118,28.226c-23.751-5.477-35.979,10.619-35.979,16.563v47.943H283.952L283.952,177.296z M363.787,177.296V84.563h36.682
		l-0.115,11.082c9.639-12.713,23.397-14.114,37.742-11.082l0.116,28.226c-23.631-5.477-35.861,10.619-35.861,16.563v47.943H363.787
		L363.787,177.296z M443.271,179.157V85.03h38.447v94.127H443.271L443.271,179.157z M592.947,95.646l4.111-11.196h-4.111h-33.276
		l-12.695,38.835l-2.118,7.354c-0.59,2.329-1.062,4.428-1.528,6.413c-0.235-0.935-0.355-1.985-0.591-3.035
		c-0.703-2.681-1.059-4.312-1.174-4.779c-0.706-2.682-1.646-5.601-2.707-8.396L526.047,84.45h-40.567l35.037,88.649
		c3.173,11.431,0,14.456-12.58,15.047l-16.812,0.695v24.026l33.508-0.697c5.646-0.115,10.228-0.695,13.638-2.214
		c3.409-1.517,14.466-10.504,15.989-13.882c2.823-5.954,5.998-13.644,9.527-23.099L592.947,95.646L592.947,95.646z M642.797,122.473
		h19.875c-0.471-5.6-2.352-9.799-5.646-12.833c-3.295-3.031-7.642-4.546-13.051-4.546c-0.472,0-0.823,0-1.179,0
		c-5.405,0.117-9.757,1.633-13.052,4.433c-3.645,3.033-5.876,7.347-6.819,12.946H642.797L642.797,122.473z M642.797,161.077
		c0.472,0,0.827,0,1.294,0c2.116,0,4-0.114,5.53-0.458c1.524-0.238,3.054-0.82,4.582-1.518c2.703-1.288,4.584-3.271,5.881-5.838
		h36.448c-2.588,11.086-8.349,19.481-17.636,25.312c-9.054,5.715-21.049,8.635-36.1,8.75c-0.234,0-0.472,0-0.702,0
		c-17.052,0-30.22-4.666-39.506-13.998c-4.116-4.197-7.409-9.216-9.642-14.931c-2.823-7.108-4.236-15.391-4.236-24.73
		c0-9.446,1.413-17.605,4.236-24.722c2.232-5.715,5.525-10.731,9.757-15.047c9.287-9.334,22.458-14,39.391-14
		c0.23,0,0.468,0,0.702,0c17.754,0.118,31.161,5.367,40.333,15.864c4.582,5.248,8.111,11.779,10.463,19.479
		c2.353,7.813,3.526,16.793,3.526,26.944v1.746h-54.322h-18.221c0,5.486,1.76,9.684,5.169,12.718
		C632.92,159.332,637.271,160.848,642.797,161.077L642.797,161.077z"/>
	<polygon fill-rule="evenodd" clip-rule="evenodd" points="0,0 155.909,0 155.909,35.575 117.931,35.575 117.931,83.749 
		78.66,83.749 78.66,35.575 39.861,35.575 39.861,173.91 0,173.91 0,0 	"/>
</g>
</svg>
